<svg width="308" height="65" viewBox="0 0 308 65" fill="none" xmlns="http://www.w3.org/2000/svg">
<path d="M28.4326 13.4825C28.7071 7.96643 33.4014 3.71593 38.9175 3.9887L278.882 15.8548C285.203 16.1674 289.646 22.1989 288.071 28.3288L281.035 55.7004C279.853 60.3012 275.597 63.4363 270.853 63.2017L36.547 51.6154C31.0309 51.3427 26.7818 46.6499 27.0563 41.1339L28.4326 13.4825Z" fill="#BFCEFF"/>
<path d="M0 10.2985C0 4.77568 4.47715 0.298523 10 0.298523H295.559C301.948 0.298523 306.699 6.20885 305.325 12.4489L298.279 44.4489C297.269 49.0333 293.207 52.2985 288.513 52.2985H10C4.47717 52.2985 0 47.8214 0 42.2985V10.2985Z" fill="white"/>
</svg>
