<svg width="19" height="26" viewBox="0 0 19 26" fill="none" xmlns="http://www.w3.org/2000/svg">
<rect x="11" y="15.0972" width="2" height="5" rx="1" transform="rotate(-23.5375 11 15.0972)" fill="#5366F4"/>
<rect x="13" y="20.0972" width="2" height="2" rx="1" transform="rotate(-23.5375 13 20.0972)" fill="#5366F4"/>
<path d="M1.92624 21.5861L9.50354 4.4067L17.068 21.5567C17.0685 21.5586 17.0691 21.5605 17.0697 21.5625C17.0864 21.6177 17.1108 21.7015 17.1383 21.8061C17.1944 22.0191 17.2585 22.2989 17.2999 22.5872C17.341 22.8737 17.3502 23.1048 17.3357 23.2614C17.0926 23.4577 16.8745 23.5515 16.7287 23.5976C16.6395 23.6259 16.575 23.6368 16.547 23.6406H2.43733C2.42944 23.6401 2.41573 23.6389 2.39716 23.6368C2.34234 23.6304 2.25706 23.6164 2.15974 23.5878C1.96823 23.5315 1.80684 23.4427 1.69337 23.3164C1.68691 23.2962 1.67559 23.253 1.66731 23.1785C1.64826 23.0073 1.65769 22.7757 1.69902 22.5056C1.73911 22.2436 1.80111 21.9966 1.855 21.8117C1.88142 21.7211 1.90459 21.6499 1.91998 21.6045C1.92225 21.5978 1.92434 21.5916 1.92624 21.5861ZM17.3178 23.3717C17.3175 23.3714 17.3187 23.3666 17.3217 23.3579C17.3195 23.3676 17.318 23.372 17.3178 23.3717Z" stroke="#5366F4" stroke-width="3.31579"/>
<rect x="7.10526" y="1.40379" width="4.78947" height="5.78947" stroke="#5366F4" stroke-width="2.21053" stroke-linejoin="round"/>
<rect x="5.5" y="0.798523" width="8" height="1" rx="0.5" stroke="#5366F4"/>
<rect x="7.60059" y="2.29852" width="3.8" height="6" fill="white"/>
<rect x="5" y="11.2985" width="9" height="2" fill="#5366F4"/>
<path d="M4 14.2985H7C7.55228 14.2985 8 14.7462 8 15.2985C8 15.8508 7.55228 16.2985 7 16.2985H4V14.2985Z" fill="#5366F4"/>
<path d="M2 17.2985H6C6.55228 17.2985 7 17.7462 7 18.2985C7 18.8508 6.55228 19.2985 6 19.2985H2V17.2985Z" fill="#5366F4"/>
<path d="M1 20.2985H5C5.55228 20.2985 6 20.7462 6 21.2985C6 21.8508 5.55228 22.2985 5 22.2985H1V20.2985Z" fill="#5366F4"/>
</svg>
